<svg id="d7f9da2f-817c-4c9b-a85e-800784aa8a08" data-name="Layer 1" xmlns="http://www.w3.org/2000/svg" viewBox="0 0 105.21 87"><defs><style>.\37 dc01098-c100-4a28-ab86-de5d1b7b624d{fill:#fff;}</style></defs><title>ralis-mark-svg</title><path class="7dc01098-c100-4a28-ab86-de5d1b7b624d" d="M26.95,97.5H18.56q-5.09,0-7.45-3.53T8.76,83.69V66.54q0-5.88-1.52-7.79C6.23,57.48,1.39,54,1.39,54s4.84-3.48,5.85-4.75,1.52-3.87,1.52-7.79V24.31q0-6.76,2.35-10.29t7.45-3.53h8.38l-3.39,5.29H20.13q-3.14,0-4.21,2.4a15.93,15.93,0,0,0-1.08,6.42V42.34a21.07,21.07,0,0,1-.54,5.14,11.12,11.12,0,0,1-1.42,3.43,7.1,7.1,0,0,1-2,2.06,6,6,0,0,1-2.2.93v.2a6,6,0,0,1,2.2.93,7.1,7.1,0,0,1,2,2.06,11.14,11.14,0,0,1,1.42,3.43,21.08,21.08,0,0,1,.54,5.14V83.39a15.93,15.93,0,0,0,1.08,6.42q1.08,2.4,4.21,2.4h3.43Z" transform="translate(-1.39 -10.5)"/><path class="7dc01098-c100-4a28-ab86-de5d1b7b624d" d="M84.44,92.21h3.43q3.14,0,4.21-2.4a15.93,15.93,0,0,0,1.08-6.42V65.66a21.08,21.08,0,0,1,.54-5.14,11.14,11.14,0,0,1,1.42-3.43,7.1,7.1,0,0,1,2-2.06,6,6,0,0,1,2.2-.93v-.2a6,6,0,0,1-2.2-.93,7.1,7.1,0,0,1-2-2.06,11.12,11.12,0,0,1-1.42-3.43,21.07,21.07,0,0,1-.54-5.14V24.61a15.93,15.93,0,0,0-1.08-6.42q-1.08-2.4-4.21-2.4H84.44L81.05,10.5h8.38q5.09,0,7.45,3.53t2.35,10.29V41.46q0,5.88,1.52,7.79c1,1.27,5.85,4.75,5.85,4.75s-4.84,3.48-5.85,4.75-1.52,3.87-1.52,7.79V83.69q0,6.76-2.35,10.29T89.44,97.5H81.05Z" transform="translate(-1.39 -10.5)"/><path class="7dc01098-c100-4a28-ab86-de5d1b7b624d" d="M56.26,59.67c8.24-1.75,13.26-7.79,13.26-16.16,0-14.35-14.7-15.46-19.21-15.46H47.63v6.4H51c4.29,0,11.5,1.19,11.5,9.13C62.47,50.18,57.64,54,49.2,54H47.63v6.26h0L67.37,79.95h10Z" transform="translate(-1.39 -10.5)"/><polygon class="7dc01098-c100-4a28-ab86-de5d1b7b624d" points="40.74 43.46 40.74 23.95 40.75 23.95 40.75 17.55 33.89 17.55 33.89 69.45 40.74 69.45 40.74 49.72 40.75 49.72 40.75 43.46 40.74 43.46"/></svg>